<?xml version="1.0" encoding="utf-8"?>
<!-- Generate more at icons.mysitemyway.com -->
<!DOCTYPE svg PUBLIC "-//W3C//DTD SVG 1.1//EN" "http://www.w3.org/Graphics/SVG/1.1/DTD/svg11.dtd">
<svg id="android-icon" class="custom-icon" version="1.1" xmlns="http://www.w3.org/2000/svg" xmlns:xlink="http://www.w3.org/1999/xlink" viewBox="0 0 100 100" style="height: 64px; width: 64px;"><circle class="outer-shape" cx="50" cy="50" r="48" style="opacity: 0.57; fill: #7e9e90;"></circle>
	<path class="inner-shape" style="opacity: 1; fill: #ffffff;" transform="translate(25,25) scale(0.5)" d="M87.375,31.25c-3.438,0-6.25,2.813-6.25,6.25v25c0,3.438,2.812,6.25,6.25,6.25s6.25-2.812,6.25-6.25v-25 C93.625,34.062,90.812,31.25,87.375,31.25z M12.375,31.25c-3.438,0-6.25,2.813-6.25,6.25v25c0,3.438,2.813,6.25,6.25,6.25 s6.25-2.812,6.25-6.25v-25C18.625,34.062,15.812,31.25,12.375,31.25z M21.75,71.875c0,5.178,4.197,9.375,9.375,9.375h3.125v12.5 c0,3.438,2.813,6.25,6.25,6.25s6.25-2.812,6.25-6.25v-12.5H53v12.5c0,3.438,2.812,6.25,6.25,6.25s6.25-2.812,6.25-6.25v-12.5h3.125 c5.178,0,9.375-4.197,9.375-9.375V37.5H21.75V71.875z M61.457,8.74l3.955-7.598c0.197-0.381,0.049-0.855-0.332-1.054 c-0.381-0.199-0.855-0.049-1.055,0.332l-4.014,7.713C56.867,6.917,53.449,6.25,49.875,6.25s-6.991,0.668-10.136,1.883L35.724,0.42 c-0.198-0.381-0.672-0.531-1.054-0.332c-0.382,0.199-0.531,0.672-0.332,1.054l3.955,7.598c-8.851,4.006-15.258,12.459-16.369,22.51 h55.902C76.715,21.199,70.309,12.745,61.457,8.74L61.457,8.74z M37.375,26.406c-2.503,0-4.531-2.029-4.531-4.531 s2.029-4.531,4.531-4.531s4.531,2.029,4.531,4.531C41.906,24.378,39.877,26.406,37.375,26.406z M62.375,26.406 c-2.503,0-4.531-2.029-4.531-4.531s2.029-4.531,4.531-4.531s4.531,2.029,4.531,4.531C66.906,24.378,64.877,26.406,62.375,26.406z"></path>
</svg>

