<?xml version="1.0" encoding="utf-8"?>
<!-- Generate more at icons.mysitemyway.com -->
<!DOCTYPE svg PUBLIC "-//W3C//DTD SVG 1.1//EN" "http://www.w3.org/Graphics/SVG/1.1/DTD/svg11.dtd">
<svg id="apple-icon" class="custom-icon" version="1.1" xmlns="http://www.w3.org/2000/svg" xmlns:xlink="http://www.w3.org/1999/xlink" viewBox="0 0 100 100" style="height: 64px; width: 64px;"><circle class="outer-shape" cx="50" cy="50" r="48" style="opacity: 0.57; fill: #7e9e90;"></circle>
	<path class="inner-shape" style="opacity: 1; fill: #ffffff;" transform="translate(25,25) scale(0.5)" d="M77.295 53.134c-0.126-12.664 10.328-18.738 10.795-19.040-5.874-8.596-15.024-9.773-18.285-9.909-7.787-0.788-15.195 4.585-19.147 4.585-3.942 0-10.041-4.468-16.499-4.351-8.488 0.126-16.314 4.935-20.685 12.537-8.819 15.303-2.258 37.973 6.337 50.383 4.2 6.075 9.208 12.898 15.784 12.654 6.332-0.253 8.727-4.097 16.382-4.097 7.656 0 9.807 4.097 16.509 3.972 6.814-0.127 11.131-6.191 15.302-12.285 4.823-7.048 6.809-13.871 6.926-14.221-0.151-0.069-13.287-5.101-13.419-20.228zM64.703 15.969c3.49-4.234 5.846-10.109 5.203-15.969-5.027 0.205-11.121 3.349-14.728 7.573-3.237 3.748-6.069 9.729-5.31 15.472 5.612 0.438 11.341-2.852 14.834-7.077z"></path>
</svg>

