<?xml version="1.0" encoding="utf-8"?>
<!-- Generate more at icons.mysitemyway.com -->
<!DOCTYPE svg PUBLIC "-//W3C//DTD SVG 1.1//EN" "http://www.w3.org/Graphics/SVG/1.1/DTD/svg11.dtd">
<svg id="chrome-icon" class="custom-icon" version="1.1" xmlns="http://www.w3.org/2000/svg" xmlns:xlink="http://www.w3.org/1999/xlink" viewBox="0 0 100 100" style="height: 64px; width: 64px;"><circle class="outer-shape" cx="50" cy="50" r="48" style="opacity: 0.57; fill: #7e9e90;"></circle>
	<path class="inner-shape" style="opacity: 1; fill: #ffffff;" transform="translate(25,25) scale(0.5)" d="M25.222 43.608l-14.31-24.785c9.162-11.471 23.265-18.822 39.087-18.822 18.304 0 34.308 9.838 43.021 24.512h-40.798c-0.733-0.063-1.474-0.098-2.223-0.098-11.902 0-21.931 8.168-24.778 19.194zM67.901 31.738h28.658c2.221 5.657 3.441 11.817 3.441 18.262 0 27.424-22.080 49.688-49.432 49.993l20.449-35.418c2.879-4.138 4.57-9.163 4.57-14.575 0-7.146-2.946-13.615-7.685-18.262zM31.836 50c0-10.016 8.148-18.164 18.164-18.164s18.164 8.148 18.164 18.164c0 10.016-8.148 18.164-18.164 18.164-10.016 0-18.164-8.148-18.164-18.164zM56.854 74.653l-14.314 24.793c-24.075-3.602-42.539-24.367-42.539-49.445 0-8.908 2.332-17.27 6.416-24.514l20.413 35.357c4.089 8.702 12.937 14.743 23.171 14.743 2.373 0 4.671-0.326 6.854-0.933z"></path>
</svg>

