<?xml version="1.0" encoding="utf-8"?>
<!-- Generate more at icons.mysitemyway.com -->
<!DOCTYPE svg PUBLIC "-//W3C//DTD SVG 1.1//EN" "http://www.w3.org/Graphics/SVG/1.1/DTD/svg11.dtd">
<svg id="firefox-icon" class="custom-icon" version="1.1" xmlns="http://www.w3.org/2000/svg" xmlns:xlink="http://www.w3.org/1999/xlink" viewBox="0 0 100 100" style="height: 64px; width: 64px;"><circle class="outer-shape" cx="50" cy="50" r="48" style="opacity: 0.57; fill: #7e9e90;"></circle>
	<path class="inner-shape" style="opacity: 1; fill: #ffffff;" transform="translate(25,25) scale(0.5)" d="M99.856 32.631l-1.158 7.43c0 0-1.656-13.755-3.685-18.898-3.11-7.88-4.494-7.816-4.503-7.805 2.083 5.293 1.705 8.137 1.705 8.137s-3.691-10.058-13.448-13.259c-10.809-3.543-16.657-2.575-17.333-2.391-0.103-0.001-0.202-0.001-0.296-0.001 0.080 0.006 0.157 0.014 0.237 0.021-0.003 0.002-0.009 0.004-0.008 0.005 0.044 0.054 11.944 2.080 14.054 4.98 0 0-5.055 0-10.085 1.449-0.227 0.065 18.508 2.34 22.338 21.062 0 0-2.054-4.285-4.594-5.013 1.671 5.082 1.242 14.724-0.349 19.517-0.205 0.616-0.414-2.664-3.548-4.077 1.004 7.192-0.060 18.599-5.050 21.741-0.389 0.245 3.128-11.261 0.707-6.813-13.936 21.367-30.411 9.861-37.817 4.796 3.796 0.826 11.001-0.129 14.191-2.501 0.004-0.003 0.008-0.005 0.012-0.008 3.464-2.368 5.515-4.098 7.357-3.689 1.843 0.412 3.070-1.438 1.639-3.079-1.433-1.644-4.913-3.904-9.621-2.672-3.32 0.87-7.435 4.543-13.716 0.823-4.821-2.856-5.275-5.229-5.317-6.873 0.119-0.583 0.269-1.127 0.447-1.623 0.555-1.55 2.237-2.017 3.173-2.387 1.587 0.273 2.955 0.768 4.391 1.504 0.019-0.478 0.025-1.112-0.002-1.832 0.138-0.274 0.053-1.099-0.168-2.107-0.127-1.007-0.334-2.048-0.659-2.997 0.001-0 0.002-0.001 0.003-0.001 0.005-0.002 0.011-0.004 0.015-0.007 0.008-0.004 0.014-0.011 0.020-0.019 0.001-0.002 0.003-0.003 0.004-0.005 0.008-0.012 0.015-0.027 0.019-0.046 0.1-0.451 1.174-1.321 2.512-2.256 1.198-0.838 2.608-1.728 3.718-2.417 0.982-0.61 1.73-1.063 1.889-1.181 0.060-0.046 0.133-0.099 0.211-0.16 0.015-0.011 0.029-0.023 0.044-0.035 0.009-0.007 0.019-0.014 0.028-0.022 0.528-0.421 1.317-1.216 1.482-2.888 0-0.004 0.001-0.008 0.001-0.012 0.005-0.049 0.009-0.099 0.013-0.15 0.003-0.035 0.005-0.071 0.007-0.107 0.001-0.028 0.003-0.055 0.004-0.084 0.003-0.066 0.005-0.133 0.006-0.202 0-0.004 0-0.007 0-0.011 0.002-0.162-0.001-0.331-0.010-0.508-0.005-0.099-0.012-0.188-0.029-0.27-0.001-0.004-0.002-0.009-0.003-0.013-0.002-0.008-0.004-0.016-0.006-0.024-0.004-0.014-0.007-0.029-0.012-0.042-0.001-0.002-0.001-0.003-0.002-0.004-0.005-0.016-0.011-0.031-0.017-0.045-0-0.001-0-0.001-0.001-0.002-0.171-0.401-0.813-0.553-3.461-0.597-0.003-0-0.005-0-0.007-0v0c-1.081-0.018-2.494-0.019-4.346-0.012-3.247 0.013-5.042-3.174-5.615-4.407 0.785-4.342 3.054-7.436 6.782-9.534 0.071-0.040 0.057-0.072-0.027-0.096 0.729-0.441-8.813-0.012-13.202 5.57-3.895-0.968-7.29-0.903-10.216-0.216-0.562-0.016-1.262-0.086-2.093-0.259-1.946-1.763-4.731-5.020-4.88-8.907 0 0-0.009 0.007-0.025 0.020-0.002-0.037-0.005-0.074-0.007-0.112 0 0-5.929 4.557-5.042 16.981-0.002 0.199-0.006 0.389-0.012 0.574-1.605 2.177-2.401 4.006-2.46 4.41-1.422 2.895-2.865 7.251-4.039 13.865 0 0 0.821-2.604 2.469-5.553-1.212 3.713-2.164 9.488-1.605 18.15 0 0 0.148-1.921 0.671-4.687 0.409 5.372 2.199 12.004 6.724 19.804 8.686 14.973 22.038 22.533 36.796 23.693 2.621 0.216 5.278 0.221 7.952 0.018 0.246-0.017 0.491-0.036 0.737-0.056 3.024-0.212 6.068-0.669 9.105-1.403 41.521-10.039 37.006-60.176 37.006-60.176z"></path>
</svg>

