<?xml version="1.0" encoding="utf-8"?>
<!-- Generate more at icons.mysitemyway.com -->
<!DOCTYPE svg PUBLIC "-//W3C//DTD SVG 1.1//EN" "http://www.w3.org/Graphics/SVG/1.1/DTD/svg11.dtd">
<svg id="foursqure-icon" class="custom-icon" version="1.1" xmlns="http://www.w3.org/2000/svg" xmlns:xlink="http://www.w3.org/1999/xlink" viewBox="0 0 100 100" style="height: 64px; width: 64px;"><circle class="outer-shape" cx="50" cy="50" r="48" style="opacity: 0.57; fill: #7e9e90;"></circle>
	<path class="inner-shape" style="opacity: 1; fill: #ffffff;" transform="translate(25,25) scale(0.5)" d="M34.493,38.378c-1.804-1.821-4.728-1.821-6.532,0l-6.309,6.37 c-1.804,1.821-1.804,4.774,0,6.596l17.73,17.904c0.093,0.113,0.172,0.235,0.277,0.343l6.736,6.802 c1.804,1.821,4.729,1.821,6.532,0l44.838-45.278c1.804-1.821,1.804-4.774,0-6.596l-6.736-6.802c-1.803-1.821-4.728-1.821-6.531,0 L49.265,53.295L34.493,38.378z M66.926,70.672c-0.262,0.408-0.563,0.797-0.918,1.154l-11.318,11.43 c-2.705,2.732-7.092,2.732-9.798,0L15.233,53.307c-2.706-2.731-2.706-7.161,0-9.894l11.319-11.43c2.706-2.732,7.092-2.732,9.798,0 l13.812,13.947l24.562-24.802L57.162,3.396c-4.51-4.554-11.82-4.554-16.33,0L3.361,41.234c-4.509,4.554-4.509,11.936,0,16.489 l37.478,37.845c4.509,4.554,11.82,4.554,16.33,0L94.64,57.729c4.267-4.309,4.489-11.148,0.68-15.729L66.926,70.672z"></path>
</svg>

