<?xml version="1.0" encoding="utf-8"?>
<!-- Generator: Adobe Illustrator 17.0.0, SVG Export Plug-In . SVG Version: 6.00 Build 0)  -->
<!DOCTYPE svg PUBLIC "-//W3C//DTD SVG 1.1//EN" "http://www.w3.org/Graphics/SVG/1.1/DTD/svg11.dtd">
<svg version="1.1" id="Layer_1" xmlns="http://www.w3.org/2000/svg" xmlns:xlink="http://www.w3.org/1999/xlink" x="0px" y="0px"
	 width="99.811px" height="100px" viewBox="0 0 99.811 100" enable-background="new 0 0 99.811 100" xml:space="preserve">
<g>
	<path fill="#FFFFFF" d="M1.63,55.952l8.083,8.155L9.625,83.7l0,0l0,0v0.015c0,0.151,0.116,0.292,0.13,0.439
		c0.019,0.202,0.065,0.414,0.104,0.609c0.02,0.09,0.078,0.171,0.102,0.257c0.065,0.246,0.138,0.496,0.236,0.726
		c0.019,0.041,0.05,0.075,0.067,0.113c0.122,0.269,0.259,0.529,0.421,0.774c0.01,0.015,0.022,0.023,0.032,0.039
		c0.182,0.262,0.381,0.51,0.606,0.731c0.043,0.044,0.097,0.074,0.142,0.115c0.2,0.186,0.402,0.366,0.629,0.517
		c0.181,0.122,0.382,0.213,0.577,0.315c0.104,0.052,0.199,0.116,0.305,0.161c0.628,0.269,1.316,0.419,2.043,0.418
		c0.015,0,0.027-0.005,0.041-0.005l7.259,0.005c2.882,0,5.22-2.325,5.217-5.205c0-2.889-2.339-5.204-5.228-5.204h-2.072
		l-0.001-16.276c0.022-0.434,0.004-0.876-0.082-1.305c-0.241-1.505-1.111-2.796-2.346-3.581l-5.229-5.229l5.89-5.899
		c0.598-0.533,1.083-1.19,1.385-1.947c0.106-0.249,0.174-0.509,0.239-0.771c0.011-0.046,0.028-0.089,0.041-0.135
		c0.094-0.44,0.124-1.005,0.104-1.455l0.004-16.551h2.072c2.888,0,5.226-2.217,5.226-5.106c0.002-2.88-2.335-5.163-5.216-5.163
		l-7.27,0.034c-0.01,0-0.022,0.011-0.029,0.011c-0.726-0.001-1.415,0.155-2.043,0.421c-0.119,0.052-0.228,0.131-0.342,0.191
		c-0.183,0.093-0.371,0.18-0.54,0.292c-0.227,0.154-0.431,0.333-0.63,0.518c-0.044,0.042-0.099,0.075-0.142,0.118
		c-0.22,0.221-0.419,0.464-0.598,0.721c-0.013,0.02-0.028,0.032-0.042,0.05c-0.158,0.237-0.289,0.494-0.412,0.756
		c-0.021,0.046-0.052,0.087-0.069,0.133c-0.096,0.22-0.155,0.455-0.216,0.689c-0.024,0.1-0.068,0.193-0.089,0.292
		c-0.039,0.19-0.126,0.388-0.146,0.586c-0.015,0.155-0.132,0.303-0.132,0.463v0.017l0,0l0,0L9.71,40.136L1.598,48.3
		c-1.046,1.048-1.529,2.426-1.501,3.796C0.054,53.488,0.57,54.894,1.63,55.952z"/>
	<path fill="#FFFFFF" d="M98.371,48.082l-8.083-8.155l0.087-19.592l0,0l0,0v-0.013c0-0.151-0.115-0.292-0.128-0.439
		c-0.021-0.204-0.065-0.414-0.104-0.609c-0.021-0.09-0.078-0.172-0.103-0.26c-0.065-0.246-0.138-0.493-0.235-0.723
		c-0.02-0.041-0.05-0.075-0.067-0.116c-0.122-0.268-0.259-0.529-0.421-0.772c-0.01-0.014-0.022-0.024-0.032-0.038
		c-0.182-0.262-0.381-0.509-0.605-0.732c-0.043-0.042-0.097-0.074-0.142-0.116c-0.2-0.186-0.403-0.366-0.629-0.518
		c-0.181-0.123-0.383-0.215-0.577-0.314c-0.105-0.052-0.198-0.119-0.306-0.165c-0.628-0.267-1.316-0.416-2.043-0.415
		c-0.016,0-0.027,0.004-0.04,0.004l-7.26-0.004c-2.882,0-5.22,2.326-5.218,5.205c0,2.889,2.339,5.204,5.229,5.204h2.07l0.003,16.276
		c-0.023,0.434-0.005,0.876,0.082,1.305c0.241,1.505,1.11,2.795,2.346,3.581l5.229,5.229l-5.89,5.9
		c-0.599,0.532-1.084,1.189-1.385,1.946C80.043,60,79.974,60.26,79.91,60.523c-0.013,0.045-0.029,0.089-0.041,0.135
		c-0.094,0.438-0.125,1.004-0.104,1.455l-0.004,16.55h-2.072c-2.888,0-5.226,2.217-5.226,5.104c-0.002,2.88,2.335,5.164,5.217,5.164
		l7.27-0.034c0.011,0,0.021-0.011,0.029-0.011c0.727,0.001,1.416-0.154,2.044-0.42c0.117-0.055,0.228-0.131,0.342-0.193
		c0.183-0.094,0.371-0.18,0.54-0.291c0.227-0.155,0.429-0.334,0.63-0.519c0.044-0.042,0.099-0.075,0.142-0.117
		c0.221-0.222,0.42-0.465,0.599-0.722c0.012-0.019,0.026-0.032,0.041-0.05c0.158-0.239,0.289-0.494,0.411-0.756
		c0.021-0.046,0.052-0.087,0.068-0.133c0.096-0.221,0.156-0.455,0.216-0.689c0.025-0.1,0.068-0.193,0.09-0.293
		c0.039-0.189,0.126-0.387,0.145-0.585c0.016-0.155,0.134-0.304,0.134-0.463v-0.017l0,0l0,0l-0.09-19.743l8.114-8.161
		c1.046-1.049,1.527-2.427,1.501-3.8C99.944,50.546,99.43,49.142,98.371,48.082z"/>
	<path fill="#FFFFFF" d="M68.92,3.269c-0.782-0.633-1.754-1.142-2.832-1.142c-0.013,0-0.022,0-0.039,0L45.282,0.164
		C45.279,0.164,45.276,0,45.273,0s-0.008,0-0.011,0H45.26c-0.025,0-0.052,0.164-0.078,0.162c-0.332-0.023-0.656,0.058-0.976,0.095
		c-0.138,0.015-0.268,0.1-0.403,0.127c-0.2,0.039-0.405,0.088-0.598,0.15c-0.218,0.07-0.421,0.183-0.626,0.281
		c-0.097,0.047-0.202,0.083-0.296,0.136c-0.249,0.138-0.479,0.309-0.702,0.485c-0.038,0.031-0.084,0.055-0.123,0.085
		c-0.233,0.195-0.444,0.418-0.642,0.651c-0.02,0.022-0.042,0.041-0.061,0.063c-0.182,0.225-0.333,0.47-0.479,0.724
		c-0.022,0.042-0.057,0.077-0.078,0.119c-0.118,0.224-0.204,0.466-0.289,0.709C39.881,3.87,39.837,3.945,39.81,4.03
		c-0.056,0.189-0.078,0.393-0.111,0.592c-0.024,0.149-0.069,0.29-0.083,0.444l-7.126,77.59c-0.212,1.431,0.145,2.939,1.147,4.13
		l8.834,10.508c0.095,0.111,0.206,0.198,0.309,0.299c0.117,0.183,0.224,0.371,0.368,0.539c1.849,2.209,5.147,2.499,7.355,0.642
		l11.349-9.548c0.246-0.207,0.462-0.44,0.66-0.682c0.009-0.01,0.021-0.019,0.026-0.026c0.71-0.871,1.094-1.927,1.152-3.007
		l5.464-59.444c0.083-0.3,0.15-0.61,0.176-0.932c0.025-0.293,0.014-0.58-0.011-0.864L70.836,7.78
		C70.993,5.988,70.22,4.324,68.92,3.269z M49.545,11.175l10.408,0.904l-0.64,6.946l-10.409-0.901L49.545,11.175z M53.754,79.585
		l-10.413-0.902l4.61-50.163l10.409,0.903L53.754,79.585z"/>
</g>
</svg>
