<?xml version="1.0" encoding="utf-8"?>
<!-- Generate more at icons.mysitemyway.com -->
<!DOCTYPE svg PUBLIC "-//W3C//DTD SVG 1.1//EN" "http://www.w3.org/Graphics/SVG/1.1/DTD/svg11.dtd">
<svg id="IE-icon" class="custom-icon" version="1.1" xmlns="http://www.w3.org/2000/svg" xmlns:xlink="http://www.w3.org/1999/xlink" viewBox="0 0 100 100" style="height: 64px; width: 64px;"><circle class="outer-shape" cx="50" cy="50" r="48" style="opacity: 0.57; fill: #7e9e90;"></circle>
	<path class="inner-shape" style="opacity: 1; fill: #ffffff;" transform="translate(25,25) scale(0.5)" d="M71.699 61.409h23.052c0.178-1.599 0.249-3.232 0.249-4.902 0-7.834-2.103-15.182-5.774-21.51 3.797-10.089 3.661-18.651-1.421-23.769-4.834-4.813-17.802-4.031-32.462 2.461-1.084-0.082-2.179-0.124-3.285-0.124-20.122 0-37.004 13.847-41.671 32.505 6.312-8.081 12.953-13.941 21.824-18.208-0.807 0.756-5.513 5.435-6.305 6.227-23.393 23.387-30.771 53.936-22.833 61.875 6.034 6.033 16.969 5.014 29.529-1.138 5.84 2.974 12.451 4.651 19.455 4.651 18.861 0 34.844-12.14 40.634-29.048h-23.229c-3.197 5.897-9.448 9.91-16.623 9.91-7.175 0-13.426-4.013-16.623-9.91-1.421-2.663-2.238-5.718-2.238-8.951v-0.071h37.721zM34.014 50.079c0.533-9.483 8.418-17.049 18.044-17.049s17.511 7.566 18.044 17.049h-36.087zM87.594 15.997c3.274 3.309 3.192 9.396 0.392 16.994-4.798-7.315-11.769-13.080-19.999-16.371 8.799-3.773 15.958-4.273 19.607-0.623zM9.129 94.459c-4.178-4.179-2.918-12.951 2.464-23.519 3.35 9.401 9.879 17.294 18.295 22.378-9.319 4.23-16.947 4.949-20.758 1.14z"></path>
</svg>

