<?xml version="1.0" encoding="utf-8"?>
<!-- Generate more at icons.mysitemyway.com -->
<!DOCTYPE svg PUBLIC "-//W3C//DTD SVG 1.1//EN" "http://www.w3.org/Graphics/SVG/1.1/DTD/svg11.dtd">
<svg id="joomla-icon" class="custom-icon" version="1.1" xmlns="http://www.w3.org/2000/svg" xmlns:xlink="http://www.w3.org/1999/xlink" viewBox="0 0 100 100" style="height: 64px; width: 64px;"><circle class="outer-shape" cx="50" cy="50" r="48" style="opacity: 0.57; fill: #7e9e90;"></circle>
	<path class="inner-shape" style="opacity: 1; fill: #ffffff;" transform="translate(25,25) scale(0.5)" d="M25.977 27.019c3.206-3.207 8.399-3.207 11.602-0.003l0.764 0.768 9.873-9.879-0.769-0.77c-5.627-5.635-13.527-7.605-20.744-5.91-1.035-6.365-6.552-11.223-13.201-11.226-7.388 0-13.374 6-13.376 13.394 0 6.38 4.452 11.719 10.416 13.069-2.26 7.563-0.414 16.097 5.551 22.069l22.249 22.256 9.863-9.884-22.247-22.254c-3.192-3.196-3.197-8.411 0.018-11.63zM99.874 13.394c0.002-7.399-5.988-13.394-13.377-13.394-6.761 0-12.351 5.024-13.25 11.547-7.527-2.213-15.995-0.341-21.938 5.606l-22.25 22.256 9.873 9.88 22.243-22.252c3.217-3.219 8.397-3.213 11.59-0.018 3.203 3.206 3.203 8.41-0.003 11.617l-0.761 0.765 9.864 9.888 0.767-0.774c5.904-5.915 7.781-14.332 5.626-21.84 6.558-0.863 11.615-6.481 11.615-13.281zM88.503 73.346c1.768-7.271-0.193-15.266-5.87-20.947l-22.216-22.265-9.873 9.875 22.219 22.267c3.217 3.222 3.209 8.408 0.018 11.606-3.203 3.204-8.399 3.204-11.605-0.003l-0.758-0.761-9.863 9.887 0.755 0.755c6.007 6.015 14.611 7.855 22.204 5.516 1.234 6.121 6.634 10.723 13.111 10.723 7.383 0 13.376-5.991 13.376-13.391 0-6.758-4.998-12.349-11.497-13.263zM59.799 51.629l-22.22 22.265c-3.194 3.2-8.402 3.206-11.616-0.012-3.205-3.213-3.206-8.408-0.004-11.618l0.762-0.759-9.872-9.875-0.755 0.753c-5.738 5.742-7.672 13.851-5.806 21.19-5.898 1.393-10.289 6.703-10.289 13.037-0.002 7.397 5.989 13.391 13.377 13.391 6.357-0.003 11.679-4.435 13.041-10.389 7.295 1.812 15.332-0.127 21.030-5.836l22.216-22.262-9.864-9.885z"></path>
</svg>

