<?xml version="1.0" encoding="utf-8"?>
<!-- Generate more at icons.mysitemyway.com -->
<!DOCTYPE svg PUBLIC "-//W3C//DTD SVG 1.1//EN" "http://www.w3.org/Graphics/SVG/1.1/DTD/svg11.dtd">
<svg id="paypal-icon" class="custom-icon" version="1.1" xmlns="http://www.w3.org/2000/svg" xmlns:xlink="http://www.w3.org/1999/xlink" viewBox="0 0 100 100" style="height: 64px; width: 64px;"><circle class="outer-shape" cx="50" cy="50" r="48" style="opacity: 0.57; fill: #7e9e90;"></circle>
	<path class="inner-shape" style="opacity: 1; fill: #ffffff;" transform="translate(25,25) scale(0.5)" d="M85.999 12.771c2.51 1.228 4.697 2.977 6.299 5.125 3.373 4.521 4.32 10.681 2.816 18.307-1.52 7.717-4.923 14.232-9.879 18.95-0.906 0.947-1.877 1.831-2.911 2.645-5.308 4.18-12.012 6.389-19.386 6.389h-23.443l-6.305 29.563h-12.932l0.985-4.521h4.505l6.305-29.563h18.386c17.603 0 32.318-10.847 36.256-29.291 4.465-20.882-10.508-30.375-23.38-30.375h-43.875l-19.44 89.229h14.847l-2.347 10.771h25.748l6.305-29.563h18.386c17.603 0 32.318-10.847 36.256-29.291 3.293-15.398-3.985-24.603-13.195-28.375zM41.245 18.172h12.611c6.308 0 10.508 5.424 8.671 12.203-1.576 6.781-8.143 12.205-14.711 12.205h-12.086l5.516-24.407z"></path>
</svg>

