<?xml version="1.0" encoding="utf-8"?>
<!-- Generate more at icons.mysitemyway.com -->
<!DOCTYPE svg PUBLIC "-//W3C//DTD SVG 1.1//EN" "http://www.w3.org/Graphics/SVG/1.1/DTD/svg11.dtd">
<svg id="safari-icon" class="custom-icon" version="1.1" xmlns="http://www.w3.org/2000/svg" xmlns:xlink="http://www.w3.org/1999/xlink" viewBox="0 0 100 100" style="height: 64px; width: 64px;"><circle class="outer-shape" cx="50" cy="50" r="48" style="opacity: 0.57; fill: #7e9e90;"></circle>
	<path class="inner-shape" style="opacity: 1; fill: #ffffff;" transform="translate(25,25) scale(0.5)" d="M50 6.25c-2.35 0-4.659 0.175-6.916 0.509-0.029-0.076-0.061-0.151-0.096-0.224 1.253-0.977 1.909-2.327 1.624-3.667-0.365-1.715-2.187-2.868-4.535-2.868-0.506 0-1.021 0.055-1.531 0.163-2.946 0.626-4.897 2.795-4.442 4.938 0.277 1.303 1.396 2.279 2.946 2.674-0.003 0.095-0.002 0.19 0.004 0.287-19.592 5.618-33.929 23.666-33.929 45.063 0 25.888 20.987 46.875 46.875 46.875 25.888 0 46.875-20.987 46.875-46.875 0-25.888-20.987-46.875-46.875-46.875zM35.633 4.776c-0.264-1.243 1.219-2.655 3.238-3.084 0.404-0.086 0.81-0.129 1.206-0.129 1.566 0 2.802 0.67 3.006 1.63 0.156 0.733-0.3 1.524-1.112 2.139-0.687-0.485-1.564-0.696-2.451-0.507-0.883 0.188-1.596 0.733-2.027 1.451-0.995-0.239-1.71-0.789-1.861-1.499zM75.135 78.26c-4.294 4.294-9.493 7.351-15.167 8.999l-4.14-6.716-1.049 7.808c-1.571 0.21-3.167 0.319-4.779 0.319-9.495 0-18.421-3.698-25.135-10.412-4.294-4.294-7.351-9.493-8.999-15.167l6.716-4.14-7.809-1.049c-0.21-1.571-0.319-3.167-0.319-4.779 0-9.495 3.697-18.421 10.412-25.135 4.294-4.294 9.493-7.351 15.167-9l4.14 6.716 1.050-7.809c1.571-0.21 3.166-0.319 4.779-0.319 9.495 0 18.421 3.697 25.135 10.412 4.294 4.294 7.351 9.493 8.999 15.167l-6.716 4.14 7.809 1.049c0.21 1.571 0.319 3.166 0.319 4.779 0 9.495-3.698 18.421-10.412 25.135zM74.307 28.818l-19.236 14.62c-1.43-0.748-3.015-1.178-4.63-1.243l-4.988-10.467-0.3 11.588c-1.297 0.638-2.452 1.53-3.406 2.632l-6.161-2.184 4.501 4.74c-0.619 1.32-0.963 2.737-1.019 4.182l-10.465 4.987 11.596 0.3c0.037 0.075 0.076 0.149 0.114 0.223l-14.62 19.236 19.236-14.62c1.43 0.748 3.015 1.178 4.63 1.243l4.988 10.467 0.299-11.588c1.297-0.638 2.452-1.53 3.406-2.632l6.161 2.184-4.501-4.74c0.619-1.32 0.964-2.737 1.019-4.182l10.464-4.987-11.595-0.3c-0.037-0.075-0.076-0.149-0.114-0.223l14.619-19.236zM50.010 43.412v0zM48.051 43.955c0.657-0.14 1.313-0.207 1.959-0.207 0.405 0 0.806 0.026 1.201 0.078l0.009 0.003-0.001-0.002c0.853 0.112 1.677 0.342 2.454 0.673l-6.987 5.31-5.311 6.987c-0.232-0.546-0.417-1.121-0.545-1.724-1.077-5.064 2.156-10.043 7.221-11.119zM54.895 61.121v0 0c-0.884 0.541-1.873 0.946-2.945 1.174-0.657 0.14-1.313 0.207-1.958 0.207-0.405 0-0.806-0.027-1.202-0.078l-0.007-0.001c-0.853-0.112-1.677-0.342-2.454-0.673l6.987-5.31 5.311-6.988c0.232 0.546 0.417 1.122 0.545 1.724 0.849 3.992-0.982 7.93-4.276 9.946z"></path>
</svg>

