<?xml version="1.0" encoding="utf-8"?>
<!-- Generate more at icons.mysitemyway.com -->
<!DOCTYPE svg PUBLIC "-//W3C//DTD SVG 1.1//EN" "http://www.w3.org/Graphics/SVG/1.1/DTD/svg11.dtd">
<svg id="skype-icon" class="custom-icon" version="1.1" xmlns="http://www.w3.org/2000/svg" xmlns:xlink="http://www.w3.org/1999/xlink" viewBox="0 0 100 100" style="height: 64px; width: 64px;"><circle class="outer-shape" cx="50" cy="50" r="48" style="opacity: 0.57; fill: #7e9e90;"></circle>
	<path class="inner-shape" style="opacity: 1; fill: #ffffff;" transform="translate(25,25) scale(0.5)" d="M95.245 56.439c0.275-2.031 0.433-4.096 0.433-6.198 0-25.226-20.561-45.678-45.919-45.678-2.52 0-4.991 0.207-7.396 0.602-4.311-2.809-9.442-4.447-14.963-4.447-15.141 0-27.4 12.267-27.4 27.404 0 5.507 1.621 10.624 4.412 14.92-0.376 2.347-0.568 4.751-0.568 7.199 0 25.23 20.55 45.68 45.915 45.68 2.863 0 5.65-0.279 8.359-0.768 4.209 2.611 9.167 4.13 14.482 4.13 15.137 0 27.401-12.27 27.401-27.405-0.001-5.721-1.75-11.041-4.755-15.438zM54.051 83.905c-14.591 0.76-21.419-2.468-27.674-8.338-6.985-6.556-4.179-14.034 1.512-14.414 5.688-0.38 9.103 6.448 12.139 8.347 3.032 1.892 14.569 6.203 20.663-0.763 6.636-7.584-4.413-11.508-12.512-12.696-11.563-1.712-26.162-7.967-25.026-20.294 1.136-12.319 10.465-18.636 20.283-19.527 12.515-1.136 20.662 1.896 27.106 7.395 7.451 6.353 3.42 13.456-1.328 14.027-4.729 0.568-10.040-10.45-20.467-10.616-10.747-0.169-18.011 11.184-4.743 14.411 13.275 3.224 27.49 4.548 32.61 16.683 5.123 12.136-7.96 25.024-22.563 25.785z"></path>
</svg>

