<?xml version="1.0" encoding="utf-8"?>
<!-- Generate more at icons.mysitemyway.com -->
<!DOCTYPE svg PUBLIC "-//W3C//DTD SVG 1.1//EN" "http://www.w3.org/Graphics/SVG/1.1/DTD/svg11.dtd">
<svg id="stumbleupon-icon" class="custom-icon" version="1.1" xmlns="http://www.w3.org/2000/svg" xmlns:xlink="http://www.w3.org/1999/xlink" viewBox="0 0 100 100" style="height: 64px; width: 64px;"><circle class="outer-shape" cx="50" cy="50" r="48" style="opacity: 0.57; fill: #7e9e90;"></circle>
	<path class="inner-shape" style="opacity: 1; fill: #ffffff;" transform="translate(25,25) scale(0.5)" d="M49.516-0.013c-27.34,0-49.503,22.167-49.503,49.513 s22.163,49.513,49.503,49.513S99.019,76.846,99.019,49.5S76.855-0.013,49.516-0.013z M49.516,37.584 c-1.656,0-2.998,1.343-2.998,2.998l-0.014,18.069c-0.098,6.91-5.717,12.483-12.649,12.483c-6.994,0-12.663-5.67-12.663-12.665 c0-0.092,0-7.857,0-7.857h9.691v7.754c0,1.656,1.342,2.998,2.998,2.998c1.656,0,2.998-1.342,2.998-2.998V40.071 c0.243-6.78,5.798-12.206,12.637-12.206c6.863,0,12.434,5.465,12.637,12.281v4.004l-5.77,1.723l-3.869-1.804v-3.487 C52.514,38.927,51.172,37.584,49.516,37.584z M77.84,58.47c0,6.995-5.67,12.665-12.663,12.665c-6.956,0-12.603-5.61-12.663-12.553 v-7.896l3.869,1.804l5.77-1.723v7.96c0,1.656,1.343,2.999,2.998,2.999c1.656,0,2.998-1.343,2.998-2.999v-8.115h9.691 C77.84,50.612,77.84,58.378,77.84,58.47z"></path>
</svg>

