<?xml version="1.0" encoding="utf-8"?>
<!-- Generate more at icons.mysitemyway.com -->
<!DOCTYPE svg PUBLIC "-//W3C//DTD SVG 1.1//EN" "http://www.w3.org/Graphics/SVG/1.1/DTD/svg11.dtd">
<svg id="xing-icon" class="custom-icon" version="1.1" xmlns="http://www.w3.org/2000/svg" xmlns:xlink="http://www.w3.org/1999/xlink" viewBox="0 0 100 100" style="height: 64px; width: 64px;"><circle class="outer-shape" cx="50" cy="50" r="48" style="opacity: 0.57; fill: #7e9e90;"></circle>
	<path class="inner-shape" style="opacity: 1; fill: #ffffff;" transform="translate(25,25) scale(0.5)" d="M36.928,56.975L18.03,45.857c-0.019-0.012-0.042-0.015-0.067-0.013l0.008-0.018 l-0.037,0.023c-0.067,0.015-0.149,0.066-0.236,0.148L2.002,55.866l7.409,4.469c0.011,0.037,0.026,0.067,0.053,0.083l10.892,6.407 c-0.053,0.109-0.086,0.23-0.086,0.359v30.902l16.008-8.462c0.173-0.03,0.328-0.114,0.445-0.235l0.028-0.015l-0.012-0.004 c0.134-0.147,0.218-0.341,0.218-0.555V67.185c0-0.063-0.008-0.124-0.022-0.184l0.02-9.631 C37.011,57.174,37.007,57.021,36.928,56.975z M97.049,88.147l-11.391-6.921L60.443,65.612V1.055L43.962,9.767l0.061,0.022 c-0.279,0.132-0.473,0.413-0.473,0.742v63.864c0,0.411,0.302,0.749,0.696,0.811l-0.216,0.013l6.292,3.933 c0.023,0.053,0.056,0.098,0.101,0.126l10.819,6.699l3.115,1.946l-0.016-0.027l15.104,9.353c0.115,0.071,0.277,0.035,0.441-0.074 l-0.018,0.207L97.049,88.147z"></path>
</svg>

