<?xml version="1.0" encoding="utf-8"?>
<!-- Generate more at icons.mysitemyway.com -->
<!DOCTYPE svg PUBLIC "-//W3C//DTD SVG 1.1//EN" "http://www.w3.org/Graphics/SVG/1.1/DTD/svg11.dtd">
<svg id="youtube-icon" class="custom-icon" version="1.1" xmlns="http://www.w3.org/2000/svg" xmlns:xlink="http://www.w3.org/1999/xlink" viewBox="0 0 100 100" style="height: 64px; width: 64px;"><circle class="outer-shape" cx="50" cy="50" r="48" style="opacity: 0.57; fill: #7e9e90;"></circle>
	<path class="inner-shape" style="opacity: 1; fill: #ffffff;" transform="translate(25,25) scale(0.5)" d="M97.919,25.457c-1.017-5.443-5.548-9.504-10.753-10.006 c-12.428-0.797-24.903-1.444-37.354-1.452c-12.452-0.007-24.879,0.626-37.309,1.412C7.279,15.916,2.748,19.957,1.735,25.42 c-1.155,7.867-1.732,15.81-1.732,23.752s0.578,15.884,1.732,23.751c1.013,5.463,5.543,9.988,10.768,10.489 c12.433,0.786,24.853,1.587,37.309,1.587c12.446,0,24.931-0.7,37.354-1.504c5.205-0.505,9.736-5.165,10.753-10.605 c1.165-7.854,1.745-15.787,1.745-23.721C99.664,41.241,99.082,33.312,97.919,25.457z M38.535,63.479V34.521L65.504,49 L38.535,63.479z"></path>
</svg>

